<?xml version="1.0" encoding="UTF-8"?>
<!DOCTYPE svg PUBLIC "-//W3C//DTD SVG 1.1//EN" "http://www.w3.org/Graphics/SVG/1.1/DTD/svg11.dtd">
<!-- Creator: CorelDRAW X7 -->
<svg xmlns="http://www.w3.org/2000/svg" xml:space="preserve" width="210mm" height="297mm" version="1.1" style="shape-rendering:geometricPrecision; text-rendering:geometricPrecision; image-rendering:optimizeQuality; fill-rule:evenodd; clip-rule:evenodd"
viewBox="0 0 21000 29700"
 xmlns:xlink="http://www.w3.org/1999/xlink">
 <defs>
  <style type="text/css">
   <![CDATA[
    .str0 {stroke:#336666;stroke-width:50}
    .fil2 {fill:none}
    .fil0 {fill:#336666;fill-rule:nonzero}
    .fil1 {fill:#669999;fill-rule:nonzero}
   ]]>
  </style>
 </defs>
 <g id="Camada_x0020_1">
  <metadata id="CorelCorpID_0Corel-Layer"/>
  <path class="fil0" d="M9942 8757l0 0c-121,-58 -223,-2 -306,170 -82,172 -62,286 59,345l0 0 80 38 0 0c122,59 224,2 306,-170 83,-171 63,-286 -59,-345l0 0 -80 -38zm-19 126l13 6c66,32 80,87 42,166l-29 62c-38,77 -90,100 -159,67l-6 -3c-68,-33 -83,-88 -46,-165l29 -62c38,-79 90,-102 156,-71z"/>
  <path class="fil1" d="M6993 9215l-208 155c-57,43 -108,34 -154,-28l-208 -277c-41,-55 -33,-103 24,-146l207 -156 73 97 -188 142 60 81 157 -118 72 96 -157 118 60 80 189 -142 73 98zm211 -434c47,97 40,161 -22,191l-80 38 -141 -290 81 -39c61,-30 115,4 162,100zm-197 -216l-212 103 246 508 212 -102c129,-63 153,-179 72,-347 -83,-171 -189,-225 -318,-162zm483 -182l80 307c22,83 61,118 119,102l7 -1c57,-15 75,-65 54,-148l-80 -307 126 -33 80 307c42,161 5,257 -110,287l-86 22c-115,30 -194,-35 -236,-197l-79 -307 125 -32zm619 374l-32 84 -129 1 198 -533c5,-11 12,-19 22,-26 9,-6 20,-9 32,-9 12,0 22,3 33,9 10,7 17,15 22,25l204 533 -130 0 -33 -84 -187 0zm139 -122l-47 -120 -46 120 93 0zm485 -204l-88 438 -124 -25 111 -553 290 58c41,8 72,27 93,56 21,30 27,67 18,110 -9,41 -31,73 -66,97l-60 47c-11,10 -15,23 -12,38l77 238 -152 -31 -56 -198c-13,-49 -6,-85 22,-107l112 -91c10,-7 16,-16 18,-25 2,-10 -4,-16 -16,-19l-167 -33zm710 401c-47,97 -101,131 -163,102l-80 -39 139 -291 81 39c61,29 69,92 23,189zm46 -289l-213 -101 -244 509 213 102c129,62 235,8 315,-161 82,-170 58,-287 -71,-349z"/>
  <path class="fil1" d="M12482 8737l289 195 105 -74 -468 -321c-9,-6 -20,-8 -32,-8 -11,0 -22,4 -32,11 -9,6 -16,15 -21,26 -5,11 -6,22 -3,34l140 551 106 -75 -84 -339zm-586 50l250 243 -22 -348 117 -53 40 566c0,11 -3,22 -9,32 -6,10 -15,17 -25,22 -11,4 -22,6 -34,5 -12,-2 -22,-6 -30,-14l-405 -400 118 -53zm-372 701l249 -70c68,-19 92,-66 71,-139l-94 -334c-18,-65 -62,-88 -130,-69l-249 70 33 117 226 -64 28 97 -188 53 32 116 188 -53 27 96 -226 63 33 117zm-317 -529l21 441 -235 11 6 122 259 -13c70,-3 104,-43 100,-119l-21 -448 -130 6zm-368 573l16 -565 -128 -4 -16 565 128 4zm-489 -633l-56 291 247 -235c10,-10 22,-15 35,-17 14,-1 27,1 39,8 12,6 20,16 26,28 6,13 8,26 5,39l-95 499 -124 -24 56 -294 -247 236c-10,9 -22,15 -35,16 -14,2 -27,0 -39,-7 -12,-7 -21,-16 -26,-28 -6,-13 -8,-25 -5,-39l95 -496 124 23z"/>
  <path class="fil2 str0" d="M9636 8927c83,-172 185,-228 306,-170l80 38c122,59 142,174 59,345 -82,172 -184,229 -306,170l-80 -38c-121,-59 -141,-173 -59,-345zm2772 -390l468 321 -105 74 -289 -195 84 339 -106 75 -140 -551c-3,-12 -2,-23 3,-34 5,-11 12,-20 21,-26 10,-7 21,-11 32,-11 12,0 23,2 32,8zm-167 92l40 566c0,11 -3,22 -9,32 -6,10 -15,17 -25,22 -11,4 -22,6 -34,5 -12,-2 -22,-6 -30,-14l-405 -400 118 -53 250 243 -22 -348 117 -53zm-491 316l94 334c21,73 -3,120 -71,139l-249 70 -33 -117 226 -63 -27 -96 -188 53 -32 -116 188 -53 -28 -97 -226 64 -33 -117 249 -70c68,-19 112,4 130,69zm-413 8l21 448c4,76 -30,116 -100,119l-259 13 -6 -122 235 -11 -21 -441 130 -6zm-482 14l-16 565 -128 -4 16 -565 128 4zm-505 -68l-56 291 247 -235c10,-10 22,-15 35,-17 14,-1 27,1 39,8 12,6 20,16 26,28 6,13 8,26 5,39l-95 499 -124 -24 56 -294 -247 236c-10,9 -22,15 -35,16 -14,2 -27,0 -39,-7 -12,-7 -21,-16 -26,-28 -6,-13 -8,-25 -5,-39l95 -496 124 23zm-2095 -591l204 533 -130 0 -33 -84 -187 0 -32 84 -129 1 198 -533c5,-11 12,-19 22,-26 9,-6 20,-9 32,-9 12,0 22,3 33,9 10,7 17,15 22,25zm-379 302c42,161 5,257 -110,287l-86 22c-115,30 -194,-35 -236,-197l-79 -307 125 -32 80 307c22,83 61,118 119,102l7 -1c57,-15 75,-65 54,-148l-80 -307 126 -33 80 307zm-883 605l-208 155c-57,43 -108,34 -154,-28l-208 -277c-41,-55 -33,-103 24,-146l207 -156 73 97 -188 142 60 81 157 -118 72 96 -157 118 60 80 189 -142 73 98zm332 -488c81,168 57,284 -72,347l-212 102 -246 -508 212 -103c129,-63 235,-9 318,162zm1690 -322c21,30 27,67 18,110 -9,41 -31,73 -66,97l-60 47c-11,10 -15,23 -12,38l77 238 -152 -31 -56 -198c-13,-49 -6,-85 22,-107l112 -91c10,-7 16,-16 18,-25 2,-10 -4,-16 -16,-19l-167 -33 -88 438 -124 -25 111 -553 290 58c41,8 72,27 93,56zm474 138c129,62 153,179 71,349 -80,169 -186,223 -315,161l-213 -102 244 -509 213 101z"/>
 </g>
</svg>
